<?xml version="1.0" encoding="UTF-8"?>
<svg width="132px" height="76px" viewBox="0 0 132 76" version="1.1" xmlns="http://www.w3.org/2000/svg" xmlns:xlink="http://www.w3.org/1999/xlink">
    <!-- Generator: Sketch 60 (88103) - https://sketch.com -->
    <title>Group 4</title>
    <desc>Created with Sketch.</desc>
    <g id="Page-1" stroke="none" stroke-width="1" fill="none" fill-rule="evenodd">
        <g id="Desktop-HD-Copy" transform="translate(-185.000000, -848.000000)" fill="#1b2d2a">
            <g id="Group-4" transform="translate(251.000000, 886.000000) rotate(-270.000000) translate(-251.000000, -886.000000) translate(213.000000, 820.000000)">
                <circle id="Oval-Copy-79" cx="3" cy="3" r="3"></circle>                
                <circle id="Oval-Copy-20" cx="3" cy="17" r="3"></circle>
                <circle id="Oval-Copy-26" cx="3" cy="31" r="3"></circle>
                <circle id="Oval-Copy-32" cx="3" cy="45" r="3"></circle>
                <circle id="Oval-Copy-38" cx="3" cy="59" r="3"></circle>
                <circle id="Oval-Copy-44" cx="3" cy="73" r="3"></circle>
                <circle id="Oval-Copy-50" cx="3" cy="87" r="3"></circle>
                <circle id="Oval-Copy-56" cx="3" cy="101" r="3"></circle>
                <circle id="Oval-Copy-62" cx="3" cy="115" r="3"></circle>
                <circle id="Oval-Copy-68" cx="3" cy="129" r="3"></circle>
                <circle id="Oval-Copy-21" cx="17" cy="17" r="3"></circle>
                <circle id="Oval-Copy-74" cx="17" cy="3" r="3"></circle>
                <circle id="Oval-Copy-27" cx="17" cy="31" r="3"></circle>
                <circle id="Oval-Copy-33" cx="17" cy="45" r="3"></circle>
                <circle id="Oval-Copy-39" cx="17" cy="59" r="3"></circle>
                <circle id="Oval-Copy-45" cx="17" cy="73" r="3"></circle>
                <circle id="Oval-Copy-51" cx="17" cy="87" r="3"></circle>
                <circle id="Oval-Copy-57" cx="17" cy="101" r="3"></circle>
                <circle id="Oval-Copy-63" cx="17" cy="115" r="3"></circle>
                <circle id="Oval-Copy-69" cx="17" cy="129" r="3"></circle>
                <circle id="Oval-Copy-22" cx="31" cy="17" r="3"></circle>
                <circle id="Oval-Copy-75" cx="31" cy="3" r="3"></circle>
                <circle id="Oval-Copy-28" cx="31" cy="31" r="3"></circle>
                <circle id="Oval-Copy-34" cx="31" cy="45" r="3"></circle>
                <circle id="Oval-Copy-40" cx="31" cy="59" r="3"></circle>
                <circle id="Oval-Copy-46" cx="31" cy="73" r="3"></circle>
                <circle id="Oval-Copy-52" cx="31" cy="87" r="3"></circle>
                <circle id="Oval-Copy-58" cx="31" cy="101" r="3"></circle>
                <circle id="Oval-Copy-64" cx="31" cy="115" r="3"></circle>
                <circle id="Oval-Copy-70" cx="31" cy="129" r="3"></circle>
                <circle id="Oval-Copy-23" cx="45" cy="17" r="3"></circle>
                <circle id="Oval-Copy-76" cx="45" cy="3" r="3"></circle>
                <circle id="Oval-Copy-29" cx="45" cy="31" r="3"></circle>
                <circle id="Oval-Copy-35" cx="45" cy="45" r="3"></circle>
                <circle id="Oval-Copy-41" cx="45" cy="59" r="3"></circle>
                <circle id="Oval-Copy-47" cx="45" cy="73" r="3"></circle>
                <circle id="Oval-Copy-53" cx="45" cy="87" r="3"></circle>
                <circle id="Oval-Copy-59" cx="45" cy="101" r="3"></circle>
                <circle id="Oval-Copy-65" cx="45" cy="115" r="3"></circle>
                <circle id="Oval-Copy-71" cx="45" cy="129" r="3"></circle>
                <circle id="Oval-Copy-24" cx="59" cy="17" r="3"></circle>
                <circle id="Oval-Copy-77" cx="59" cy="3" r="3"></circle>
                <circle id="Oval-Copy-30" cx="59" cy="31" r="3"></circle>
                <circle id="Oval-Copy-36" cx="59" cy="45" r="3"></circle>
                <circle id="Oval-Copy-42" cx="59" cy="59" r="3"></circle>
                <circle id="Oval-Copy-48" cx="59" cy="73" r="3"></circle>
                <circle id="Oval-Copy-54" cx="59" cy="87" r="3"></circle>
                <circle id="Oval-Copy-60" cx="59" cy="101" r="3"></circle>
                <circle id="Oval-Copy-66" cx="59" cy="115" r="3"></circle>
                <circle id="Oval-Copy-72" cx="59" cy="129" r="3"></circle>
                <circle id="Oval-Copy-25" cx="73" cy="17" r="3"></circle>
                <circle id="Oval-Copy-78" cx="73" cy="3" r="3"></circle>
                <circle id="Oval-Copy-31" cx="73" cy="31" r="3"></circle>
                <circle id="Oval-Copy-37" cx="73" cy="45" r="3"></circle>
                <circle id="Oval-Copy-43" cx="73" cy="59" r="3"></circle>
                <circle id="Oval-Copy-49" cx="73" cy="73" r="3"></circle>
                <circle id="Oval-Copy-55" cx="73" cy="87" r="3"></circle>
                <circle id="Oval-Copy-61" cx="73" cy="101" r="3"></circle>
                <circle id="Oval-Copy-67" cx="73" cy="115" r="3"></circle>
                <circle id="Oval-Copy-73" cx="73" cy="129" r="3"></circle>
            </g>
        </g>
    </g>
</svg>