<?xml version="1.0" encoding="UTF-8"?>
<svg width="22px" height="23px" viewBox="0 0 22 23" version="1.1" xmlns="http://www.w3.org/2000/svg" xmlns:xlink="http://www.w3.org/1999/xlink">
    <!-- Generator: Sketch 60 (88103) - https://sketch.com -->
    <title>Shape</title>
    <desc>Created with Sketch.</desc>
    <g id="Page-1" stroke="none" stroke-width="1" fill="none" fill-rule="evenodd">
        <g id="Desktop-HD-Copy" transform="translate(-1020.000000, -724.000000)" fill="#1B2D2A" fill-rule="nonzero">
            <g id="Group-5" transform="translate(138.000000, 164.000000)">
                <g id="Train-model-" transform="translate(672.000000, 545.000000)">
                    <g id="settings-sharp" transform="translate(210.000000, 15.000000)">
                        <path d="M11,7.5 C8.83012774,7.5 7.07109872,9.290861 7.07109872,11.5 C7.07109872,13.709139 8.83012774,15.5 11,15.5 C13.1698723,15.5 14.9289013,13.709139 14.9289013,11.5 C14.9224288,9.29359627 13.1671856,7.5065896 11,7.5 Z M19.4824979,11.5 C19.4804545,11.8737578 19.4535454,12.2469453 19.4019554,12.617 L21.7931829,14.523 C22.0082894,14.703829 22.0629773,15.0167243 21.9223455,15.262 L19.6602806,19.238 C19.5183292,19.4809728 19.2254071,19.5849501 18.9658473,19.4845 L16.1542274,18.3345 C15.5687624,18.793494 14.9280707,19.1744142 14.247728,19.468 L13.8273356,22.507 C13.7788127,22.7877291 13.5419846,22.9942785 13.2620649,23 L8.73793509,23 C8.46351206,22.994562 8.22910855,22.7969694 8.17266442,22.5235 L7.75227198,19.4845 C7.07005309,19.1943166 6.42889989,18.8127858 5.84577264,18.35 L3.03415266,19.5 C2.77471139,19.6005392 2.48182455,19.4967853 2.33971936,19.254 L0.0776544505,15.2785 C-0.0629773189,15.0332243 -0.00828940133,14.720329 0.20681708,14.5395 L2.59804462,12.6335 C2.54704138,12.257849 2.52013688,11.8792134 2.51750214,11.5 C2.5195455,11.1262422 2.54645459,10.7530547 2.59804462,10.383 L0.20681708,8.477 C-0.00828940133,8.29617097 -0.0629773189,7.98327574 0.0776544505,7.738 L2.33971936,3.762 C2.48167082,3.51902715 2.7745929,3.41504986 3.03415266,3.5155 L5.84577264,4.6655 C6.43123758,4.20650598 7.07192932,3.82558579 7.75227198,3.532 L8.17266442,0.493 C8.22118727,0.212270857 8.4580154,0.00572153767 8.73793509,0 L13.2620649,0 C13.5364879,0.00543799932 13.7708915,0.203030552 13.8273356,0.4765 L14.247728,3.5155 C14.9308043,3.80548523 15.5727943,4.18702259 16.1566829,4.65 L18.9658473,3.5 C19.2252886,3.39946082 19.5181754,3.50321471 19.6602806,3.746 L21.9223455,7.722 C22.0629773,7.96727574 22.0082894,8.28017097 21.7931829,8.461 L19.4019554,10.367 C19.4529374,10.7424856 19.4798418,11.1209535 19.4824979,11.5 Z" id="Shape"></path>
                    </g>
                </g>
            </g>
        </g>
    </g>
</svg>